<?xml version="1.0" encoding="UTF-8"?>
<svg xmlns="http://www.w3.org/2000/svg" viewBox="0 0 542.69 256.06">
  <defs>
    <style>
      .cls-1 {
        fill: #e30613;
      }

      .cls-2 {
        fill: #00669a;
      }
    </style>
  </defs>
  <g id="Ebene_4" data-name="Ebene 4">
    <g>
      <g>
        <path class="cls-2" d="M235.35,116.22c-3.63-1.61-8.42-3.31-14.22-4.21-3.93-.62-7.61-.76-10.92-.62-.44,3.86-.67,7.84-.67,11.92,0,7.54.76,14.72,2.3,21.48,2.03-.53,4.05-1.08,6.09-1.61,5.38-1.63,13.99-5.08,22.12-12.6,3.89-3.61,6.74-7.29,8.78-10.44-4.49-1.31-8.99-2.62-13.46-3.93ZM325.85,149.46c-3.27,6.86-7.91,12.08-13.91,15.66-6,3.57-12.79,5.36-20.44,5.36-12.3,0-22.26-4.26-29.88-12.84-7.63-8.55-11.45-19.99-11.45-34.32v-.05c-2.41,3.43-5.15,6.6-8.19,9.43-6.58,6.09-14.4,10.54-23.23,13.22l-6.25,1.66c1.72,6.71,4.25,13.02,7.54,18.95,7.01,12.62,16.77,22.47,29.32,29.55,12.53,7.08,26.73,10.62,42.62,10.62,19.46,0,36.11-5.1,49.98-15.29,13.85-10.19,23.11-24.17,27.78-41.93h-43.9ZM341.96,55.13c-13.87-10.28-30.52-15.43-49.98-15.43-15.89,0-30.1,3.56-42.62,10.63-12.54,7.09-22.31,16.97-29.32,29.65-4.79,8.69-7.94,18.21-9.47,28.52.62-.02,1.24-.04,1.86-.04,3.06,0,6.12.25,9.13.71,5.06.8,10.03,2.26,14.76,4.35l14.07,4.1c.9-11.7,4.65-21.25,11.23-28.64,7.63-8.56,17.59-12.84,29.88-12.84,7.64,0,14.44,1.79,20.44,5.36,6,3.59,10.63,8.81,13.91,15.66h43.9c-4.67-17.76-13.92-31.78-27.78-42.04Z"/>
        <path class="cls-2" d="M506.14,132.66c-4.83-6.23-10.54-10.97-17.16-14.24-6.62-3.27-15.22-6.69-25.81-10.28-10.58-3.41-18.37-6.62-23.35-9.57-4.97-2.95-7.47-7.08-7.47-12.38,0-4.81,1.47-8.53,4.44-11.09,2.95-2.57,6.85-3.86,11.68-3.86,5.61,0,10.19,1.52,13.78,4.56,3.57,3.03,5.52,7.2,5.84,12.49h43.21c-.8-15.41-6.71-27.44-17.76-36.08-11.06-8.65-25.6-12.97-43.67-12.97s-32.15,4.32-43.21,12.97c-11.06,8.63-16.58,20.59-16.58,35.85,0,10.28,2.41,18.61,7.24,24.98,4.83,6.39,10.58,11.22,17.29,14.49,6.69,3.26,15.32,6.53,25.92,9.8,7.31,2.18,12.97,4.12,16.93,5.84s7.31,3.89,10.05,6.55c2.71,2.64,4.09,6,4.09,10.03,0,4.83-1.72,8.62-5.15,11.32-3.43,2.74-8.09,4.09-14.01,4.09s-10.42-1.59-14.01-4.78c-3.57-3.18-5.68-7.82-6.3-13.91h-42.52c.32,10.76,3.31,19.94,9.01,27.57,5.68,7.63,13.27,13.39,22.77,17.29,9.48,3.89,20.22,5.84,32.22,5.84s22.97-2.26,32.01-6.78c9.02-4.51,15.91-10.58,20.67-18.22,4.74-7.63,7.11-16.1,7.11-25.44,0-9.82-2.41-17.83-7.24-24.06Z"/>
      </g>
      <polygon class="cls-1" points="64.36 117.86 102.88 125.25 121.36 85.14 135.61 117.86 170.97 111.53 139.83 42.39 101.3 42.39 64.36 117.86"/>
      <path class="cls-1" d="M248.81,120.15c-2.03,3.15-4.88,6.83-8.78,10.44-8.12,7.52-16.74,10.97-22.12,12.6-2.03.53-4.05,1.08-6.09,1.61-7.15,1.89-14.3,3.79-21.43,5.68l26.4,53.36h-42.69l-21.34-45.2-75.26,13.75-13.48,31.46H22.47l22.47-48.3L0,126.32h30.89l58.99,13.48,107.27-26.4c3.18-.87,7.66-1.82,13.06-2.02,3.31-.14,6.99,0,10.92.62,5.8.9,10.6,2.6,14.22,4.21,4.48,1.31,8.97,2.62,13.46,3.93Z"/>
    </g>
  </g>
  <g id="Ebene_5" data-name="Ebene 5">
    <path class="cls-2" d="M542.69,25.43c-16.96,4.68-20.75,8.48-25.43,25.43-4.68-16.96-8.48-20.75-25.43-25.43,16.96-4.68,20.75-8.48,25.43-25.43,4.68,16.96,8.48,20.75,25.43,25.43Z"/>
    <g>
      <path class="cls-1" d="M32.69,245.58l-3.29,9.96h-4.23l10.76-31.68h4.94l10.81,31.68h-4.37l-3.38-9.96h-11.23ZM43.07,242.38l-3.1-9.12c-.71-2.07-1.17-3.95-1.65-5.78h-.09c-.47,1.88-.99,3.81-1.6,5.73l-3.1,9.16h9.54Z"/>
      <path class="cls-1" d="M72.73,240.69h-12.31v11.42h13.72v3.43h-17.81v-31.68h17.11v3.43h-13.02v10.01h12.31v3.38Z"/>
      <path class="cls-1" d="M79.45,224.29c2.07-.42,5.03-.66,7.85-.66,4.37,0,7.19.8,9.16,2.58,1.6,1.41,2.49,3.57,2.49,6.02,0,4.18-2.63,6.96-5.97,8.08v.14c2.44.85,3.9,3.1,4.65,6.39,1.03,4.42,1.79,7.47,2.44,8.69h-4.23c-.52-.89-1.22-3.62-2.11-7.57-.94-4.37-2.63-6.02-6.34-6.16h-3.85v13.72h-4.09v-31.25ZM83.54,238.72h4.18c4.37,0,7.14-2.4,7.14-6.02,0-4.09-2.96-5.87-7.28-5.92-1.97,0-3.38.19-4.04.38v11.56Z"/>
      <path class="cls-1" d="M131.95,239.37c0,10.9-6.63,16.68-14.71,16.68s-14.24-6.49-14.24-16.07c0-10.06,6.25-16.64,14.71-16.64s14.24,6.63,14.24,16.03ZM107.37,239.89c0,6.77,3.67,12.83,10.1,12.83s10.15-5.97,10.15-13.16c0-6.3-3.29-12.88-10.1-12.88s-10.15,6.25-10.15,13.21Z"/>
      <path class="cls-2" d="M169.36,254.51c-1.5.75-4.51,1.5-8.37,1.5-8.93,0-15.65-5.64-15.65-16.03s6.72-16.64,16.54-16.64c3.95,0,6.44.85,7.52,1.41l-.99,3.34c-1.55-.75-3.76-1.32-6.39-1.32-7.43,0-12.36,4.75-12.36,13.07,0,7.75,4.46,12.74,12.17,12.74,2.49,0,5.03-.52,6.67-1.32l.85,3.24Z"/>
      <path class="cls-2" d="M174.48,223.87h4.09v28.25h13.54v3.43h-17.62v-31.68Z"/>
      <path class="cls-2" d="M213.07,240.69h-12.31v11.42h13.72v3.43h-17.81v-31.68h17.11v3.43h-13.02v10.01h12.31v3.38Z"/>
      <path class="cls-2" d="M224.91,245.58l-3.29,9.96h-4.23l10.76-31.68h4.93l10.81,31.68h-4.37l-3.38-9.96h-11.23ZM235.3,242.38l-3.1-9.12c-.7-2.07-1.17-3.95-1.64-5.78h-.09c-.47,1.88-.99,3.81-1.6,5.73l-3.1,9.16h9.54Z"/>
      <path class="cls-2" d="M248.55,255.54v-31.68h4.46l10.15,16.03c2.35,3.71,4.18,7.05,5.69,10.29l.09-.05c-.38-4.23-.47-8.08-.47-13.02v-13.25h3.85v31.68h-4.14l-10.06-16.07c-2.21-3.52-4.32-7.14-5.92-10.57l-.14.05c.24,4,.33,7.8.33,13.07v13.54h-3.85Z"/>
      <path class="cls-2" d="M283.57,223.87v31.68h-4.09v-31.68h4.09Z"/>
      <path class="cls-2" d="M290.71,255.54v-31.68h4.46l10.15,16.03c2.35,3.71,4.18,7.05,5.69,10.29l.09-.05c-.38-4.23-.47-8.08-.47-13.02v-13.25h3.85v31.68h-4.14l-10.06-16.07c-2.21-3.52-4.32-7.14-5.92-10.57l-.14.05c.23,4,.33,7.8.33,13.07v13.54h-3.85Z"/>
      <path class="cls-2" d="M345.75,254.13c-1.83.66-5.45,1.74-9.73,1.74-4.79,0-8.74-1.22-11.84-4.18-2.73-2.63-4.42-6.86-4.42-11.8.05-9.45,6.53-16.35,17.15-16.35,3.67,0,6.53.8,7.9,1.46l-.99,3.34c-1.69-.75-3.81-1.36-7-1.36-7.71,0-12.74,4.79-12.74,12.74s4.84,12.78,12.22,12.78c2.68,0,4.51-.38,5.45-.85v-9.45h-6.44v-3.29h10.43v15.23Z"/>
      <path class="cls-2" d="M361.4,250.56c1.83,1.13,4.51,2.07,7.33,2.07,4.18,0,6.63-2.21,6.63-5.4,0-2.96-1.69-4.65-5.97-6.3-5.17-1.83-8.37-4.51-8.37-8.98,0-4.93,4.09-8.6,10.25-8.6,3.24,0,5.59.75,7,1.55l-1.13,3.34c-1.03-.56-3.15-1.5-6.02-1.5-4.32,0-5.97,2.58-5.97,4.75,0,2.96,1.93,4.42,6.3,6.11,5.36,2.07,8.08,4.65,8.08,9.31,0,4.89-3.62,9.12-11.09,9.12-3.05,0-6.39-.89-8.08-2.02l1.03-3.43Z"/>
      <path class="cls-2" d="M401.54,240.69h-12.31v11.42h13.72v3.43h-17.81v-31.68h17.11v3.43h-13.02v10.01h12.31v3.38Z"/>
      <path class="cls-2" d="M408.26,224.29c2.07-.42,5.03-.66,7.85-.66,4.37,0,7.19.8,9.17,2.58,1.6,1.41,2.49,3.57,2.49,6.02,0,4.18-2.63,6.96-5.97,8.08v.14c2.44.85,3.9,3.1,4.65,6.39,1.03,4.42,1.79,7.47,2.44,8.69h-4.23c-.52-.89-1.22-3.62-2.12-7.57-.94-4.37-2.63-6.02-6.34-6.16h-3.85v13.72h-4.09v-31.25ZM412.35,238.72h4.18c4.37,0,7.14-2.4,7.14-6.02,0-4.09-2.96-5.87-7.29-5.92-1.97,0-3.38.19-4.04.38v11.56Z"/>
      <path class="cls-2" d="M441.25,255.54l-10.34-31.68h4.42l4.93,15.6c1.36,4.28,2.54,8.13,3.38,11.84h.09c.89-3.67,2.21-7.66,3.62-11.8l5.36-15.65h4.37l-11.33,31.68h-4.51Z"/>
      <path class="cls-2" d="M464.61,223.87v31.68h-4.09v-31.68h4.09Z"/>
      <path class="cls-2" d="M493.89,254.51c-1.5.75-4.51,1.5-8.37,1.5-8.93,0-15.65-5.64-15.65-16.03s6.72-16.64,16.54-16.64c3.95,0,6.44.85,7.52,1.41l-.99,3.34c-1.55-.75-3.76-1.32-6.39-1.32-7.43,0-12.36,4.75-12.36,13.07,0,7.75,4.46,12.74,12.17,12.74,2.49,0,5.03-.52,6.67-1.32l.85,3.24Z"/>
      <path class="cls-2" d="M515.41,240.69h-12.31v11.42h13.72v3.43h-17.81v-31.68h17.11v3.43h-13.02v10.01h12.31v3.38Z"/>
    </g>
  </g>
</svg>